<?xml version="1.0" encoding="UTF-8" standalone="no"?>
<svg
   width="300"
   height="262.49924"
   viewBox="0 0 300 262.49924"
   fill="none"
   version="1.1"
   id="svg42"
   sodipodi:docname="roshn-footer-rebrand-logo.svg"
   inkscape:version="1.4 (86a8ad7, 2024-10-11)"
   xmlns:inkscape="http://www.inkscape.org/namespaces/inkscape"
   xmlns:sodipodi="http://sodipodi.sourceforge.net/DTD/sodipodi-0.dtd"
   xmlns="http://www.w3.org/2000/svg"
   xmlns:svg="http://www.w3.org/2000/svg">
  <sodipodi:namedview
     id="namedview42"
     pagecolor="#ffffff"
     bordercolor="#000000"
     borderopacity="0.25"
     inkscape:showpageshadow="2"
     inkscape:pageopacity="0.0"
     inkscape:pagecheckerboard="0"
     inkscape:deskcolor="#d1d1d1"
     inkscape:zoom="1.2976575"
     inkscape:cx="211.14971"
     inkscape:cy="107.11609"
     inkscape:window-width="1500"
     inkscape:window-height="912"
     inkscape:window-x="-8"
     inkscape:window-y="-8"
     inkscape:window-maximized="1"
     inkscape:current-layer="svg42" />
  <g
     clip-path="url(#clip0_2882_10827)"
     id="g42"
     transform="matrix(1.4422877,0,0,1.4422877,0.00563394,0)">
    <path
       d="m 65.2083,60.8787 c -0.0036,-0.5321 -0.1342,-1.0558 -0.3807,-1.5276 l 7.5356,-7.5247 c 0.6676,0.4095 1.4326,0.6337 2.216,0.6497 0.7834,0.016 1.5569,-0.177 2.2407,-0.5589 0.6838,-0.3819 1.2533,-0.939 1.6497,-1.6139 0.3964,-0.6749 0.6053,-1.4431 0.6053,-2.2255 0,-0.7824 -0.2089,-1.5506 -0.6053,-2.2255 -0.3964,-0.6748 -0.9659,-1.2319 -1.6497,-1.6139 -0.6838,-0.3819 -1.4573,-0.5748 -2.2407,-0.5589 -0.7834,0.016 -1.5484,0.2403 -2.216,0.6497 L 64.8266,36.805 c 0.3758,-0.727 0.4789,-1.5641 0.2907,-2.3603 -0.1881,-0.7962 -0.655,-1.499 -1.3166,-1.9816 -0.6615,-0.4826 -1.474,-0.7132 -2.2909,-0.6502 -0.8168,0.0631 -1.5842,0.4156 -2.1636,0.9939 -0.5794,0.5784 -0.9327,1.3445 -0.9961,2.1601 -0.0633,0.8156 0.1674,1.627 0.6505,2.2876 0.4831,0.6607 1.1868,1.1272 1.9842,1.3153 0.7973,0.1881 1.6357,0.0854 2.3639,-0.2895 l 7.5365,7.5238 c -0.4255,0.6819 -0.651,1.4693 -0.651,2.2728 0,0.8035 0.2255,1.5909 0.651,2.2728 l -7.5338,7.5261 c -0.4725,-0.2466 -0.9972,-0.3771 -1.5303,-0.3806 -0.6703,0 -1.3256,0.1985 -1.8829,0.5703 -0.5574,0.3718 -0.9918,0.9003 -1.2483,1.5187 -0.2565,0.6183 -0.3236,1.2987 -0.1928,1.9552 0.1307,0.6564 0.4535,1.2594 0.9275,1.7326 0.474,0.4733 1.0778,0.7956 1.7353,0.9262 0.6574,0.1306 1.3388,0.0635 1.9581,-0.1926 0.6193,-0.2561 1.1486,-0.6899 1.521,-1.2464 0.3724,-0.5564 0.5712,-1.2107 0.5712,-1.88"
       fill="#468077"
       id="path1" />
    <path
       d="m 55.8438,48.079 4.9493,4.9452 v -9.8894 z"
       fill="#468077"
       id="path2" />
    <path
       d="m 142.781,60.8787 c 0.003,-0.5321 0.134,-1.0558 0.38,-1.5276 l -7.535,-7.5247 c -0.668,0.4095 -1.433,0.6337 -2.216,0.6497 -0.784,0.016 -1.557,-0.177 -2.241,-0.5589 -0.684,-0.3819 -1.253,-0.939 -1.65,-1.6139 -0.396,-0.6749 -0.605,-1.4431 -0.605,-2.2255 0,-0.7824 0.209,-1.5506 0.605,-2.2255 0.397,-0.6748 0.966,-1.2319 1.65,-1.6139 0.684,-0.3819 1.457,-0.5748 2.241,-0.5589 0.783,0.016 1.548,0.2403 2.216,0.6497 l 7.536,-7.5242 c -0.375,-0.727 -0.479,-1.5641 -0.29,-2.3603 0.188,-0.7962 0.655,-1.499 1.316,-1.9816 0.662,-0.4826 1.474,-0.7132 2.291,-0.6502 0.817,0.0631 1.584,0.4156 2.164,0.9939 0.579,0.5784 0.932,1.3445 0.996,2.1601 0.063,0.8156 -0.167,1.627 -0.651,2.2876 -0.483,0.6607 -1.186,1.1272 -1.984,1.3153 -0.797,0.1881 -1.636,0.0854 -2.364,-0.2895 l -7.537,7.5242 c 0.425,0.682 0.651,1.4694 0.651,2.2729 0,0.8034 -0.226,1.5908 -0.651,2.2728 l 7.536,7.5243 c 0.472,-0.2466 0.997,-0.3771 1.53,-0.3807 0.671,0 1.326,0.1985 1.883,0.5703 0.558,0.3719 0.992,0.9004 1.248,1.5187 0.257,0.6184 0.324,1.2988 0.193,1.9552 -0.13,0.6564 -0.453,1.2594 -0.927,1.7327 -0.474,0.4732 -1.078,0.7955 -1.736,0.9261 -0.657,0.1306 -1.338,0.0636 -1.958,-0.1926 -0.619,-0.2561 -1.148,-0.6898 -1.521,-1.2463 -0.372,-0.5565 -0.571,-1.2108 -0.571,-1.8801"
       fill="#468077"
       id="path3" />
    <path
       d="m 152.147,48.079 -4.948,4.9452 v -9.8894 z"
       fill="#468077"
       id="path4" />
    <path
       d="M 85.634,84.5143 C 85.2545,84.1406 84.7914,83.8625 84.2829,83.703 V 73.0619 c 0.7623,-0.1816 1.4622,-0.563 2.0277,-1.1047 0.5655,-0.5418 0.976,-1.2244 1.1893,-1.9773 0.2133,-0.753 0.2216,-1.5491 0.0241,-2.3063 -0.1975,-0.7573 -0.5937,-1.4482 -1.1478,-2.0016 -0.554,-0.5534 -1.2459,-0.9493 -2.0042,-1.1468 -0.7583,-0.1974 -1.5556,-0.1894 -2.3098,0.0233 -0.7542,0.2127 -1.4379,0.6224 -1.9807,1.1868 -0.5427,0.5644 -0.9249,1.2632 -1.1071,2.0243 h -10.658 c -0.1593,-0.5079 -0.4377,-0.9704 -0.8121,-1.3491 -0.474,-0.4732 -1.0779,-0.7955 -1.7353,-0.926 -0.6574,-0.1306 -1.3389,-0.0636 -1.9581,0.1926 -0.6193,0.2561 -1.1486,0.6898 -1.521,1.2463 -0.3724,0.5565 -0.5711,1.2108 -0.5711,1.8801 0,0.6692 0.1987,1.3235 0.5711,1.88 0.3724,0.5565 0.9017,0.9902 1.521,1.2464 0.6192,0.2561 1.3007,0.3231 1.9581,0.1926 0.6574,-0.1306 1.2613,-0.4529 1.7353,-0.9261 0.3747,-0.3792 0.6534,-0.8421 0.813,-1.3504 h 10.6571 c 0.1819,0.7826 0.58,1.4987 1.149,2.0668 0.569,0.5682 1.2861,0.9656 2.0699,1.1473 v 10.6415 c -0.5088,0.1593 -0.9723,0.4374 -1.3519,0.8113 -0.474,0.4733 -0.7967,1.0763 -0.9275,1.7327 -0.1308,0.6564 -0.0636,1.3368 0.1929,1.9552 0.2565,0.6183 0.6909,1.1468 1.2482,1.5186 0.5573,0.3719 1.2126,0.5703 1.8829,0.5703 0.6703,0 1.3255,-0.1984 1.8829,-0.5703 0.5573,-0.3718 0.9917,-0.9003 1.2482,-1.5186 0.2565,-0.6184 0.3237,-1.2988 0.1929,-1.9552 -0.1308,-0.6564 -0.4535,-1.2594 -0.9275,-1.7327"
       fill="#468077"
       id="path5" />
    <path
       d="m 69.9472,82.0767 7.0017,0.0022 -7.0036,-6.993 z"
       fill="#468077"
       id="path6" />
    <path
       d="m 140.485,29.7483 c -0.374,-0.3789 -0.653,-0.8413 -0.812,-1.349 h -10.657 c -0.182,0.7611 -0.563,1.46 -1.106,2.0247 -0.543,0.5646 -1.226,0.9745 -1.98,1.1875 -0.754,0.2129 -1.552,0.2212 -2.31,0.024 -0.758,-0.1972 -1.45,-0.5928 -2.005,-1.146 -0.554,-0.5533 -0.95,-1.2441 -1.148,-2.0012 -0.198,-0.7572 -0.19,-1.5533 0.023,-2.3064 0.213,-0.753 0.623,-1.4357 1.189,-1.9776 0.565,-0.542 1.265,-0.9236 2.027,-1.1055 v -10.642 c -0.509,-0.159 -0.972,-0.437 -1.351,-0.8109 -0.474,-0.4732 -0.797,-1.0762 -0.927,-1.73263 -0.131,-0.65643 -0.064,-1.33683 0.192,-1.95517 0.257,-0.61833 0.691,-1.14683 1.249,-1.51867 0.557,-0.37183 1.212,-0.57029 1.883,-0.57029 0.67,0 1.325,0.19846 1.882,0.57029 0.558,0.37184 0.992,0.90034 1.249,1.51867 0.256,0.61834 0.323,1.29874 0.193,1.95517 -0.131,0.65643 -0.454,1.25943 -0.928,1.73263 -0.38,0.3744 -0.843,0.6527 -1.352,0.8118 v 10.6411 c 0.783,0.1816 1.501,0.5791 2.07,1.1472 0.569,0.5682 0.967,1.2842 1.149,2.0669 h 10.657 c 0.16,-0.5081 0.438,-0.9709 0.813,-1.3499 0.474,-0.4733 1.078,-0.7956 1.735,-0.9261 0.657,-0.1306 1.339,-0.0636 1.958,0.1926 0.619,0.2561 1.149,0.6898 1.521,1.2463 0.372,0.5565 0.571,1.2108 0.571,1.8801 0,0.6693 -0.199,1.3235 -0.571,1.88 -0.372,0.5565 -0.902,0.9902 -1.521,1.2464 -0.619,0.2561 -1.301,0.3231 -1.958,0.1926 -0.657,-0.1306 -1.261,-0.4529 -1.735,-0.9261"
       fill="#468077"
       id="path7" />
    <path
       d="m 138.044,14.0819 0.003,6.9912 -7.004,-6.993 z"
       fill="#468077"
       id="path8" />
    <path
       d="m 67.5066,29.7483 c 0.3742,-0.3789 0.6528,-0.8413 0.8125,-1.349 h 10.6571 c 0.182,0.7611 0.5639,1.46 1.1065,2.0247 0.5425,0.5646 1.2261,0.9745 1.9802,1.1875 0.7541,0.2129 1.5515,0.2212 2.3098,0.024 0.7584,-0.1972 1.4504,-0.5928 2.0046,-1.146 0.5543,-0.5533 0.9507,-1.2441 1.1485,-2.0012 0.1978,-0.7572 0.1897,-1.5533 -0.0233,-2.3064 -0.213,-0.753 -0.6233,-1.4357 -1.1886,-1.9776 -0.5653,-0.542 -1.2651,-0.9236 -2.0273,-1.1055 v -10.642 c 0.5086,-0.159 0.9718,-0.437 1.351,-0.8109 0.474,-0.4732 0.7968,-1.0762 0.9275,-1.73263 C 86.6959,9.25684 86.6288,8.57644 86.3722,7.9581 86.1157,7.33977 85.6813,6.81127 85.124,6.43943 84.5667,6.0676 83.9114,5.86914 83.2411,5.86914 c -0.6703,0 -1.3255,0.19846 -1.8829,0.57029 -0.5573,0.37184 -0.9917,0.90034 -1.2482,1.51867 -0.2565,0.61834 -0.3236,1.29874 -0.1929,1.95517 0.1308,0.65643 0.4535,1.25943 0.9275,1.73263 0.3796,0.3744 0.8433,0.6527 1.3524,0.8118 v 10.6411 c -0.7839,0.1814 -1.5012,0.5788 -2.0702,1.147 -0.569,0.5682 -0.967,1.2843 -1.1487,2.0671 H 68.3168 c -0.1595,-0.5081 -0.438,-0.9709 -0.8125,-1.3499 -0.474,-0.4733 -1.0779,-0.7956 -1.7353,-0.9261 -0.6574,-0.1306 -1.3389,-0.0636 -1.9581,0.1926 -0.6193,0.2561 -1.1486,0.6898 -1.521,1.2463 -0.3724,0.5565 -0.5711,1.2108 -0.5711,1.8801 0,0.6693 0.1987,1.3235 0.5711,1.88 0.3724,0.5565 0.9017,0.9902 1.521,1.2464 0.6192,0.2561 1.3007,0.3231 1.9581,0.1926 0.6574,-0.1306 1.2613,-0.4529 1.7353,-0.9261"
       fill="#468077"
       id="path9" />
    <path
       d="m 69.9476,14.0819 -0.0023,6.9912 7.0036,-6.993 z"
       fill="#468077"
       id="path10" />
    <path
       d="m 122.356,84.5143 c 0.38,-0.3737 0.843,-0.6518 1.352,-0.8113 V 73.0619 c -0.763,-0.1816 -1.463,-0.563 -2.028,-1.1047 -0.566,-0.5418 -0.976,-1.2244 -1.189,-1.9773 -0.214,-0.753 -0.222,-1.5491 -0.025,-2.3063 0.198,-0.7573 0.594,-1.4482 1.148,-2.0016 0.554,-0.5534 1.246,-0.9493 2.004,-1.1468 0.759,-0.1974 1.556,-0.1894 2.31,0.0233 0.754,0.2127 1.438,0.6224 1.981,1.1868 0.543,0.5644 0.925,1.2632 1.107,2.0243 h 10.658 c 0.159,-0.5079 0.438,-0.9704 0.812,-1.3491 0.474,-0.4732 1.078,-0.7955 1.735,-0.926 0.658,-0.1306 1.339,-0.0636 1.959,0.1926 0.619,0.2561 1.148,0.6898 1.521,1.2463 0.372,0.5565 0.571,1.2108 0.571,1.8801 0,0.6692 -0.199,1.3235 -0.571,1.88 -0.373,0.5565 -0.902,0.9902 -1.521,1.2464 -0.62,0.2561 -1.301,0.3231 -1.959,0.1926 -0.657,-0.1306 -1.261,-0.4529 -1.735,-0.9261 -0.375,-0.3792 -0.653,-0.8421 -0.813,-1.3504 h -10.657 c -0.182,0.7826 -0.58,1.4987 -1.149,2.0668 -0.569,0.5682 -1.286,0.9656 -2.07,1.1473 v 10.6415 c 0.509,0.1593 0.972,0.4374 1.352,0.8113 0.474,0.4733 0.797,1.0763 0.928,1.7327 0.13,0.6564 0.063,1.3368 -0.193,1.9552 -0.257,0.6183 -0.691,1.1468 -1.249,1.5186 -0.557,0.3719 -1.212,0.5703 -1.882,0.5703 -0.671,0 -1.326,-0.1984 -1.883,-0.5703 -0.558,-0.3718 -0.992,-0.9003 -1.249,-1.5186 -0.256,-0.6184 -0.323,-1.2988 -0.192,-1.9552 0.13,-0.6564 0.453,-1.2594 0.927,-1.7327"
       fill="#468077"
       id="path11" />
    <path
       d="m 138.045,82.0767 -7.002,0.0022 7.004,-6.993 z"
       fill="#468077"
       id="path12" />
    <path
       d="m 116.818,86.8067 c -0.533,0.0036 -1.058,0.1339 -1.53,0.3801 l -7.536,-7.5242 c 0.41,-0.6667 0.634,-1.4305 0.65,-2.2127 0.016,-0.7822 -0.177,-1.5545 -0.559,-2.2373 -0.383,-0.6828 -0.941,-1.2514 -1.617,-1.6472 -0.676,-0.3958 -1.445,-0.6045 -2.229,-0.6045 -0.783,0 -1.552,0.2087 -2.228,0.6045 -0.676,0.3958 -1.234,0.9644 -1.617,1.6472 -0.3822,0.6828 -0.5755,1.4551 -0.5595,2.2373 0.016,0.7822 0.2406,1.546 0.6505,2.2127 l -7.534,7.5265 c -0.7281,-0.3751 -1.5664,-0.4781 -2.3638,-0.2902 -0.7974,0.1878 -1.5013,0.6541 -1.9846,1.3146 -0.4834,0.6605 -0.7143,1.4718 -0.6512,2.2874 0.0632,0.8156 0.4162,1.5819 0.9954,2.1604 0.5793,0.5785 1.3465,0.9313 2.1634,0.9946 0.8168,0.0633 1.6294,-0.1671 2.291,-0.6495 0.6617,-0.4824 1.1289,-1.1851 1.3173,-1.9812 0.1883,-0.7961 0.0855,-1.6333 -0.29,-2.3603 l 7.5355,-7.5275 c 0.683,0.4248 1.472,0.65 2.276,0.65 0.805,0 1.594,-0.2252 2.277,-0.65 l 7.535,7.5247 c -0.247,0.4719 -0.377,0.9957 -0.381,1.5281 0,0.6693 0.199,1.3236 0.571,1.8801 0.373,0.5565 0.902,0.9902 1.521,1.2463 0.619,0.2561 1.301,0.3232 1.958,0.1926 0.658,-0.1306 1.262,-0.4529 1.736,-0.9261 0.474,-0.4733 0.796,-1.0763 0.927,-1.7327 0.131,-0.6564 0.064,-1.3368 -0.193,-1.9552 -0.256,-0.6183 -0.691,-1.1468 -1.248,-1.5187 -0.557,-0.3718 -1.213,-0.5703 -1.883,-0.5703"
       fill="#468077"
       id="path13" />
    <path
       d="m 103.995,96.1568 4.952,-4.942 h -9.904 z"
       fill="#468077"
       id="path14" />
    <path
       d="M 116.818,9.35135 C 116.285,9.3477 115.76,9.21739 115.288,8.97118 l -7.536,7.52422 c 0.41,0.6667 0.634,1.4305 0.65,2.2127 0.016,0.7822 -0.177,1.5545 -0.559,2.2373 -0.383,0.6829 -0.941,1.2515 -1.617,1.6472 -0.676,0.3958 -1.445,0.6045 -2.229,0.6045 -0.783,0 -1.552,-0.2087 -2.228,-0.6045 -0.676,-0.3957 -1.234,-0.9643 -1.617,-1.6472 -0.3822,-0.6828 -0.5755,-1.4551 -0.5595,-2.2373 0.016,-0.7822 0.2406,-1.546 0.6505,-2.2127 L 92.709,8.97118 C 91.9809,9.34634 91.1426,9.44929 90.3452,9.26145 89.5478,9.07361 88.8439,8.60733 88.3606,7.9468 87.8772,7.28627 87.6463,6.47499 87.7094,5.65937 87.7726,4.84375 88.1256,4.07754 88.7048,3.499 c 0.5793,-0.57854 1.3465,-0.93129 2.1634,-0.99458 0.8168,-0.06328 1.6294,0.16707 2.291,0.64947 0.6617,0.48239 1.1289,1.18507 1.3173,1.9812 0.1883,0.79614 0.0855,1.63327 -0.29,2.36034 l 7.5355,7.52517 c 0.683,-0.4248 1.472,-0.65 2.276,-0.65 0.805,0 1.594,0.2252 2.277,0.65 l 7.535,-7.5247 c -0.247,-0.47184 -0.377,-0.9957 -0.381,-1.52809 0,-0.66929 0.199,-1.32355 0.571,-1.88005 0.373,-0.5565 0.902,-0.99024 1.521,-1.24637 0.619,-0.25612 1.301,-0.32314 1.958,-0.19257 0.658,0.13057 1.262,0.45288 1.736,0.92614 0.474,0.47326 0.796,1.07623 0.927,1.73267 0.131,0.65643 0.064,1.33684 -0.193,1.95518 -0.256,0.61835 -0.691,1.14686 -1.248,1.5187 -0.557,0.37184 -1.213,0.57031 -1.883,0.57031"
       fill="#468077"
       id="path15" />
    <path
       d="m 103.995,0 4.952,4.94194 h -9.904 z"
       fill="#468077"
       id="path16" />
    <path
       d="m 102.743,44.7634 1.255,3.2091 1.252,-3.2077 c 0.286,-0.7285 0.532,-1.4723 0.736,-2.2279 1.173,-4.3138 0.914,-8.8915 -0.74,-13.0456 l -1.25,-3.1554 -1.253,3.1554 c -0.965,2.4214 -1.461,5.0039 -1.462,7.6101 10e-4,2.6228 0.497,5.222 1.46,7.662"
       fill="#468077"
       id="path17" />
    <path
       d="m 100.838,46.5884 3.16,1.383 -1.386,-3.1521 c -0.314,-0.7175 -0.667,-1.4173 -1.058,-2.0961 -2.2244,-3.8795 -5.6491,-6.934 -9.76,-8.7047 l -3.1182,-1.3486 1.3483,3.1159 c 1.032,2.3937 2.51,4.5699 4.3552,6.4131 1.8584,1.8538 4.0493,3.3421 6.4587,4.3872"
       fill="#468077"
       id="path18" />
    <path
       d="m 100.783,49.2247 3.214,-1.2531 -3.213,-1.2503 c -0.729,-0.2857 -1.4742,-0.531 -2.2309,-0.7346 -4.3201,-1.1723 -8.9045,-0.9137 -13.0649,0.7369 l -3.1601,1.248 3.1601,1.2512 c 2.4251,0.9641 5.0114,1.4594 7.6216,1.4597 2.6268,-0.0011 5.2299,-0.4956 7.6732,-1.4578"
       fill="#468077"
       id="path19" />
    <path
       d="m 102.613,51.1261 1.385,-3.1554 -3.157,1.3844 c -0.718,0.3133 -1.4192,0.6659 -2.099,1.056 -3.8846,2.222 -6.9428,5.642 -8.7156,9.7466 l -1.3506,3.1136 3.1205,-1.3463 c 2.3974,-1.0305 4.5769,-2.5062 6.4228,-4.3487 1.8569,-1.8555 3.3469,-4.0432 4.3939,-6.4489"
       fill="#468077"
       id="path20" />
    <path
       d="m 105.252,51.1798 -1.255,-3.2091 -1.252,3.2077 c -0.287,0.7285 -0.532,1.4723 -0.736,2.2278 -1.174,4.3139 -0.914,8.8916 0.739,13.0457 l 1.25,3.1553 1.253,-3.1553 c 0.966,-2.4214 1.462,-5.0039 1.462,-7.6101 -10e-4,-2.6228 -0.496,-5.2221 -1.46,-7.662"
       fill="#468077"
       id="path21" />
    <path
       d="m 107.156,49.3537 -3.16,-1.383 1.387,3.1521 c 0.313,0.7176 0.666,1.4173 1.057,2.0961 2.225,3.8789 5.65,6.9325 9.761,8.7025 l 3.119,1.3485 -1.349,-3.1158 c -1.032,-2.3938 -2.51,-4.57 -4.355,-6.4131 -1.859,-1.854 -4.05,-3.3423 -6.46,-4.3873 z"
       fill="#468077"
       id="path22" />
    <path
       d="m 107.21,46.717 -3.214,1.2531 3.213,1.2503 c 0.729,0.2857 1.474,0.531 2.231,0.7346 4.32,1.172 8.905,0.9129 13.065,-0.7383 l 3.16,-1.248 -3.16,-1.2512 c -2.425,-0.9641 -5.011,-1.4594 -7.621,-1.4597 -2.627,0.0011 -5.23,0.4957 -7.674,1.4578"
       fill="#468077"
       id="path23" />
    <path
       d="m 105.381,44.8171 -1.385,3.1554 3.157,-1.3844 c 0.719,-0.3134 1.419,-0.6659 2.099,-1.0561 3.885,-2.2217 6.943,-5.6417 8.716,-9.7466 l 1.35,-3.1135 -3.12,1.3462 c -2.398,1.0305 -4.577,2.5063 -6.423,4.3487 -1.857,1.8556 -3.347,4.0432 -4.394,6.4489"
       fill="#468077"
       id="path24" />
    <path
       d="m 55.8424,170.796 h -0.0042 c -0.908,-0.63 -1.8538,-1.205 -2.8322,-1.719 -1.0476,-0.557 -1.9401,-1.067 -2.7279,-1.565 -0.7312,-0.444 -1.4087,-0.97 -2.0192,-1.569 -0.2072,-0.189 -0.3738,-0.418 -0.4897,-0.673 -0.116,-0.256 -0.1789,-0.532 -0.1849,-0.812 -0.0336,-0.35 0.0085,-0.703 0.1234,-1.035 0.1149,-0.332 0.2999,-0.635 0.5425,-0.89 0.9721,-0.849 2.5558,-0.82 4.3368,0.072 0.9764,0.507 1.8512,1.189 2.5807,2.012 l 0.5491,0.619 1.7015,-3.087 -0.4695,-0.293 c -0.8365,-0.522 -1.7497,-0.909 -2.7063,-1.148 -1.7567,-0.467 -3.6017,-0.495 -5.3715,-0.08 -0.7736,0.182 -1.5104,0.495 -2.1788,0.925 -0.6297,0.408 -1.1618,0.949 -1.5589,1.585 -0.4498,0.781 -0.654,1.679 -0.5859,2.577 0.0681,0.899 0.4052,1.756 0.9676,2.46 0.6395,0.763 1.3824,1.433 2.2073,1.992 0.8911,0.603 1.8174,1.154 2.7738,1.648 0.9149,0.476 1.8032,1.001 2.6607,1.573 0.7397,0.487 1.4021,1.082 1.965,1.766 0.4818,0.592 0.7346,1.337 0.7123,2.1 0.014,0.452 -0.0774,0.901 -0.2672,1.312 -0.1898,0.411 -0.4727,0.773 -0.8264,1.056 -0.3638,0.288 -0.779,0.505 -1.2236,0.64 -1.4371,0.451 -3.1004,0.238 -4.7889,-0.636 -1.1765,-0.642 -2.1567,-1.591 -2.8364,-2.745 l -0.5031,-0.794 -1.9691,3.238 -0.1342,0.213 0.4736,0.305 c 1.1054,0.705 2.31,1.241 3.574,1.59 1.2909,0.365 2.6258,0.553 3.9676,0.556 0.967,0.003 1.9307,-0.111 2.8704,-0.338 0.8882,-0.213 1.7282,-0.592 2.4758,-1.116 0.7249,-0.519 1.3224,-1.196 1.7475,-1.979 0.455,-0.888 0.681,-1.876 0.6576,-2.874 0.0075,-1.019 -0.3357,-2.01 -0.9722,-2.807 -0.6426,-0.796 -1.396,-1.496 -2.2371,-2.079 z"
       fill="#468077"
       id="path25" />
    <path
       d="m 78.4673,163.69 c 0.0278,-0.616 0.108,-1.229 0.2396,-1.832 0.0356,-0.181 0.1052,-0.354 0.2051,-0.51 l 0.8893,-1.01 -6.3685,0.009 0.8241,0.984 0.0041,0.004 c 0.106,0.155 0.1801,0.33 0.218,0.514 0.1256,0.587 0.2041,1.184 0.235,1.784 0.046,0.705 0.0745,1.51 0.0874,2.394 0.0087,0.853 0.0133,1.641 0.0133,2.342 v 1.906 h -8.8485 v -1.789 c 0,-0.701 0.0041,-1.48 0.0175,-2.359 0.0087,-0.918 0.0386,-1.715 0.0823,-2.437 0.0282,-0.617 0.1085,-1.23 0.24,-1.833 0.0358,-0.182 0.1069,-0.354 0.2093,-0.509 l 0.8806,-1.01 -6.3814,0.009 0.8452,1.001 0.0134,0.017 c 0.0991,0.146 0.1686,0.31 0.2046,0.483 0.1259,0.588 0.2048,1.185 0.2359,1.785 0.046,0.705 0.0736,1.51 0.0869,2.393 0.0088,0.854 0.0133,1.641 0.0133,2.342 v 5.606 c 0,0.7 -0.0045,1.484 -0.0133,2.341 -0.0133,0.884 -0.0391,1.689 -0.0869,2.394 -0.0299,0.6 -0.1088,1.197 -0.2359,1.784 -0.0351,0.177 -0.1062,0.344 -0.2088,0.492 h 0.0042 l -0.9239,1.014 6.4071,-0.009 -0.8277,-0.979 v -0.004 c -0.1101,-0.158 -0.1859,-0.338 -0.2226,-0.527 -0.1322,-0.601 -0.2125,-1.213 -0.24,-1.828 -0.046,-0.722 -0.0736,-1.519 -0.0823,-2.437 -0.0134,-0.875 -0.0175,-1.653 -0.0175,-2.354 v -1.693 h 8.8485 v 1.806 c 0,0.7 -0.0046,1.484 -0.0133,2.341 -0.0129,0.884 -0.0391,1.689 -0.0874,2.394 -0.0296,0.6 -0.1082,1.197 -0.235,1.784 -0.0359,0.177 -0.1055,0.346 -0.2051,0.497 l -0.9064,1.005 6.392,-0.005 -0.8328,-0.979 c -0.1068,-0.161 -0.1808,-0.341 -0.218,-0.531 -0.1323,-0.601 -0.2124,-1.213 -0.2396,-1.828 -0.0459,-0.705 -0.0699,-1.523 -0.0699,-2.428 v -10.105 c 0,-0.91 0.0263,-1.707 0.0699,-2.429"
       fill="#468077"
       id="path26" />
    <path
       d="m 96.2949,161.33 c 0.0951,0.164 0.1629,0.341 0.2005,0.527 0.1213,0.604 0.1981,1.216 0.2299,1.832 0.0524,0.718 0.0786,1.515 0.092,2.438 0.0087,0.87 0.0129,1.658 0.0129,2.359 v 6.972 l -10.8489,-15.007 -0.0828,-0.109 -4.4145,0.005 0.8065,0.992 0.0175,0.017 c 0.0973,0.155 0.1666,0.326 0.2046,0.505 0.1272,0.602 0.2059,1.214 0.2355,1.828 0.046,0.732 0.074,1.55 0.074,2.429 v 10.106 c 0,0.892 -0.0262,1.689 -0.074,2.428 -0.0272,0.615 -0.1059,1.227 -0.2355,1.828 -0.0404,0.184 -0.1111,0.359 -0.2092,0.519 l -0.8737,1.001 4.2674,-0.009 -0.7146,-0.975 c -0.0973,-0.164 -0.1666,-0.344 -0.2051,-0.531 -0.1242,-0.604 -0.2011,-1.217 -0.2299,-1.833 -0.0524,-0.717 -0.0786,-1.515 -0.092,-2.437 -0.0087,-0.866 -0.0133,-1.653 -0.0133,-2.354 v -9.11 l 12.4841,17.241 h 1.5253 v -13.506 c 0,-0.701 0.0041,-1.489 0.0129,-2.359 0.0133,-0.906 0.0395,-1.702 0.0873,-2.438 0.0278,-0.617 0.108,-1.229 0.2396,-1.832 0.0407,-0.191 0.1098,-0.374 0.2051,-0.544 l 0.7408,-0.975 -4.1584,0.009 z"
       fill="#468077"
       id="path27" />
    <path
       d="m 19.2014,180.837 c -0.4353,-0.196 -0.8575,-0.42 -1.2642,-0.67 -0.6676,-0.432 -1.3067,-0.906 -1.9134,-1.419 -0.6581,-0.551 -1.3253,-1.171 -1.97,-1.828 -0.6236,-0.622 -1.2117,-1.275 -1.7525,-1.932 -0.4504,-0.541 -0.8626,-1.113 -1.2333,-1.711 -0.2123,-0.284 -0.3529,-0.614 -0.4098,-0.964 0.0087,-0.077 0.0328,-0.151 0.071,-0.219 0.0381,-0.067 0.0896,-0.126 0.1511,-0.173 0.3198,-0.258 0.661,-0.488 1.02,-0.688 0.4488,-0.253 0.933,-0.535 1.4384,-0.84 0.5455,-0.324 1.0593,-0.699 1.5346,-1.119 0.496,-0.442 0.9144,-0.965 1.2379,-1.545 0.3532,-0.665 0.5302,-1.41 0.5141,-2.163 -0.003,-0.691 -0.1578,-1.373 -0.4534,-1.998 -0.3298,-0.673 -0.8191,-1.257 -1.4256,-1.699 -0.7099,-0.519 -1.5114,-0.9 -2.3627,-1.123 -1.0858,-0.288 -2.2065,-0.424 -3.3298,-0.404 l -8.9795322,0.004 0.8240592,0.983 0.00414,0.005 c 0.106473,0.16 0.181973,0.339 0.222573,0.527 0.12695,0.602 0.20568,1.213 0.23544,1.828 0.04323,0.722 0.06944,1.518 0.06944,2.428 l 0.0308,7.856 c 0,0.7 -0.00459,1.484 -0.01333,2.341 -0.01288,0.884 -0.04598,1.667 -0.08691,2.394 -0.02674,0.601 -0.10551,1.198 -0.23544,1.784 -0.0353,0.177 -0.10652,0.344 -0.209241,0.492 h 0.00414 L -0.00390625,181.998 6.40322,181.99 5.57548,181.01 5.57134,181.006 C 5.46565,180.847 5.39035,180.67 5.34923,180.484 5.22298,179.88 5.14426,179.267 5.11379,178.652 5.06781,177.917 5.03975,177.119 5.02642,176.214 5.01768,175.348 5.01355,174.561 5.01355,173.86 v -12.042 h 4.04072 c 1.28763,0 2.22703,0.357 2.86353,1.083 0.6922,0.87 1.0397,1.964 0.9762,3.073 0.0356,0.809 -0.1658,1.611 -0.5794,2.307 -0.4062,0.617 -0.8863,1.183 -1.4297,1.684 l -1.53448,1.402 c -0.28005,0.233 -0.50585,0.524 -0.66166,0.853 -0.15581,0.33 -0.2379,0.689 -0.24058,1.053 0.02769,0.71 0.19979,1.408 0.50584,2.05 0.34715,0.789 0.76599,1.545 1.25128,2.259 0.5423,0.796 1.138,1.555 1.7828,2.272 0.6507,0.738 1.3685,1.414 2.1443,2.02 l 0.1614,0.122 h 7.5366 l -2.6212,-1.154 z"
       fill="#468077"
       id="path28" />
    <path
       d="m 38.1694,163.05 c -0.9747,-0.911 -2.1297,-1.608 -3.3904,-2.046 -2.4894,-0.888 -5.2096,-0.888 -7.6989,0 -1.2633,0.438 -2.4211,1.135 -3.3992,2.046 -1.0151,0.958 -1.8264,2.111 -2.3853,3.39 -1.2066,3.033 -1.2066,6.412 0,9.445 0.557,1.282 1.3708,2.437 2.3913,3.394 0.9819,0.898 2.1328,1.592 3.3858,2.042 2.4911,0.904 5.2211,0.904 7.7122,0 1.2537,-0.448 2.405,-1.143 3.3864,-2.042 1.0198,-0.956 1.8317,-2.111 2.3852,-3.394 1.2184,-3.031 1.2184,-6.414 0,-9.445 -0.5584,-1.279 -1.3697,-2.432 -2.3852,-3.39 m -0.5537,11.516 c -0.1954,1.168 -0.6259,2.284 -1.2655,3.281 -0.5373,0.818 -1.2669,1.492 -2.125,1.963 -0.7421,0.405 -1.5682,0.632 -2.4132,0.664 -0.8451,0.032 -1.686,-0.133 -2.4566,-0.481 -0.7948,-0.342 -1.5162,-0.833 -2.125,-1.447 -0.7239,-0.737 -1.3177,-1.591 -1.7562,-2.526 -0.55,-1.171 -0.9352,-2.414 -1.1445,-3.691 -0.3035,-1.504 -0.3332,-3.051 -0.0879,-4.566 0.1958,-1.167 0.6265,-2.283 1.266,-3.28 0.5367,-0.821 1.2662,-1.497 2.125,-1.972 0.8011,-0.44 1.7003,-0.672 2.6147,-0.674 0.7745,0.004 1.5401,0.165 2.2505,0.473 0.791,0.34 1.5052,0.835 2.1002,1.457 0.7197,0.75 1.3166,1.609 1.7686,2.544 0.5599,1.169 0.9481,2.412 1.1528,3.691 0.3015,1.504 0.334,3.049 0.0961,4.564 z"
       fill="#468077"
       id="path29" />
    <path
       d="m 118.941,172.287 h 2.161 c 0.371,-0.017 0.742,0.031 1.096,0.143 0.178,0.06 0.335,0.169 0.454,0.315 0.103,0.143 0.161,0.314 0.168,0.49 0.025,0.29 0.038,0.625 0.038,1.002 v 2.081 c 0.014,0.578 -0.106,1.152 -0.35,1.676 -0.244,0.524 -0.606,0.986 -1.057,1.347 -0.462,0.373 -0.987,0.659 -1.55,0.843 -0.602,0.206 -1.233,0.311 -1.869,0.311 -1.04,0.009 -2.063,-0.257 -2.966,-0.772 -0.93,-0.537 -1.749,-1.247 -2.411,-2.092 -0.711,-0.913 -1.279,-1.929 -1.684,-3.012 -0.429,-1.117 -0.716,-2.284 -0.853,-3.472 -0.136,-1.149 -0.104,-2.312 0.097,-3.452 0.171,-1.048 0.549,-2.052 1.113,-2.953 0.542,-0.85 1.288,-1.55 2.171,-2.038 1.05,-0.547 2.224,-0.813 3.407,-0.772 1.085,0.014 2.153,0.269 3.127,0.747 1.099,0.531 2.082,1.275 2.89,2.189 l 0.516,0.558 1.844,-2.877 -0.538,-0.298 c -1.086,-0.623 -2.25,-1.102 -3.46,-1.423 -2.576,-0.701 -5.301,-0.64 -7.842,0.176 -1.328,0.427 -2.556,1.116 -3.613,2.025 -1.074,0.943 -1.933,2.104 -2.52,3.406 -0.65,1.503 -0.969,3.127 -0.937,4.764 -0.024,1.541 0.281,3.069 0.895,4.483 0.563,1.286 1.379,2.445 2.398,3.41 1.006,0.943 2.19,1.676 3.482,2.158 1.317,0.496 2.714,0.747 4.121,0.738 1.53,-0.006 3.047,-0.287 4.477,-0.83 1.576,-0.61 3.028,-1.501 4.285,-2.63 l 0.193,-0.171 v -0.265 c 0,-1.371 0.009,-2.566 0.029,-3.611 0.014,-0.984 0.106,-1.966 0.276,-2.936 l 0.109,-0.679 h -7.697 z"
       fill="#468077"
       id="path30" />
    <path
       d="m 207.34,163.821 c -0.642,-1.103 -1.604,-1.984 -2.76,-2.526 -1.547,-0.692 -3.234,-1.018 -4.929,-0.953 l -8.757,0.005 0.815,0.992 0.008,0.013 c 0.099,0.157 0.168,0.329 0.206,0.51 0.127,0.602 0.205,1.213 0.235,1.827 0.046,0.731 0.074,1.55 0.074,2.429 v 10.106 c 0,0.892 -0.026,1.688 -0.074,2.429 -0.027,0.614 -0.106,1.226 -0.235,1.827 -0.042,0.182 -0.111,0.357 -0.206,0.518 l -0.873,0.997 h 5.058 l 1.321,-0.004 -0.863,-0.993 c -0.104,-0.152 -0.175,-0.324 -0.21,-0.505 -0.125,-0.587 -0.203,-1.184 -0.235,-1.784 -0.046,-0.705 -0.074,-1.51 -0.087,-2.394 l -0.004,-0.239 c -0.009,-0.762 -0.013,-1.467 -0.013,-2.102 v -12.155 h 3.87 c 0.951,-0.033 1.892,0.21 2.707,0.701 0.69,0.434 1.24,1.058 1.582,1.797 0.351,0.783 0.508,1.638 0.458,2.494 -0.04,0.965 -0.294,1.909 -0.746,2.763 -0.503,0.966 -1.199,1.819 -2.044,2.508 -0.926,0.725 -1.891,1.401 -2.89,2.023 l -2.554,1.61 2.981,-0.496 c 1.507,-0.251 2.938,-0.835 4.189,-1.71 1.234,-0.736 2.311,-1.708 3.169,-2.86 0.762,-1.007 1.249,-2.195 1.412,-3.447 0.164,-1.162 -0.048,-2.347 -0.605,-3.381 z"
       fill="#468077"
       id="path31" />
    <path
       d="m 186.224,161.31 0.005,0.004 c 0.103,0.156 0.177,0.33 0.218,0.512 0.122,0.592 0.199,1.193 0.23,1.796 0.042,0.729 0.072,1.51 0.085,2.388 0.008,0.853 0.012,1.624 0.012,2.312 v 6.295 c 0.014,0.804 -0.157,1.6 -0.499,2.329 -0.317,0.653 -0.774,1.229 -1.337,1.688 -0.565,0.466 -1.211,0.823 -1.905,1.054 -1.348,0.484 -2.82,0.5 -4.178,0.046 -0.624,-0.21 -1.201,-0.542 -1.696,-0.977 -0.51,-0.474 -0.914,-1.051 -1.183,-1.693 -0.32,-0.776 -0.474,-1.61 -0.452,-2.449 v -6.408 c 0,-0.687 0.004,-1.459 0.012,-2.296 0.013,-0.866 0.039,-1.653 0.086,-2.346 0.03,-0.587 0.107,-1.17 0.23,-1.745 0.035,-0.186 0.105,-0.364 0.205,-0.524 l 0.739,-0.96 -6.015,0.009 0.709,0.964 c 0.092,0.162 0.157,0.338 0.193,0.52 0.124,0.59 0.201,1.189 0.229,1.791 0.046,0.72 0.073,1.501 0.086,2.387 0.008,0.854 0.012,1.624 0.012,2.312 v 6.295 c -0.019,1.119 0.224,2.226 0.71,3.233 0.447,0.898 1.086,1.687 1.871,2.312 0.776,0.617 1.661,1.083 2.609,1.374 1.934,0.608 4.008,0.608 5.942,0 0.953,-0.292 1.844,-0.758 2.627,-1.374 0.839,-0.653 1.51,-1.498 1.956,-2.463 0.446,-0.966 0.654,-2.024 0.607,-3.086 v -6.288 c 0,-0.689 0.004,-1.45 0.017,-2.312 0.008,-0.9 0.038,-1.681 0.081,-2.388 0.03,-0.604 0.109,-1.204 0.235,-1.796 0.035,-0.186 0.103,-0.366 0.201,-0.529 l 0.722,-0.959 -4.174,0.009 z"
       fill="#468077"
       id="path32" />
    <path
       d="m 165.807,163.052 c -0.976,-0.912 -2.133,-1.609 -3.395,-2.047 -2.488,-0.887 -5.207,-0.887 -7.695,0 -1.264,0.437 -2.422,1.134 -3.399,2.047 -1.015,0.959 -1.826,2.111 -2.385,3.39 -1.213,3.032 -1.213,6.413 0,9.445 0.558,1.282 1.371,2.437 2.391,3.394 0.984,0.897 2.135,1.59 3.387,2.042 2.489,0.904 5.218,0.904 7.708,0 1.256,-0.448 2.409,-1.144 3.39,-2.046 1.02,-0.955 1.831,-2.109 2.385,-3.39 1.213,-3.033 1.213,-6.416 0,-9.45 -0.559,-1.277 -1.37,-2.428 -2.385,-3.385 m -0.557,11.521 c -0.197,1.166 -0.627,2.281 -1.266,3.277 -0.537,0.817 -1.267,1.491 -2.125,1.962 -0.743,0.403 -1.569,0.629 -2.413,0.661 -0.845,0.031 -1.686,-0.132 -2.457,-0.477 -0.794,-0.343 -1.515,-0.835 -2.125,-1.448 -0.723,-0.736 -1.315,-1.59 -1.752,-2.525 -0.553,-1.171 -0.938,-2.413 -1.144,-3.691 -0.3,-1.505 -0.331,-3.051 -0.092,-4.566 0.196,-1.168 0.627,-2.284 1.266,-3.281 0.54,-0.819 1.27,-1.496 2.129,-1.971 0.802,-0.439 1.701,-0.669 2.615,-0.67 0.773,0.002 1.537,0.162 2.247,0.469 0.792,0.339 1.507,0.835 2.104,1.456 0.722,0.749 1.318,1.61 1.764,2.549 0.562,1.167 0.951,2.409 1.157,3.687 0.302,1.504 0.333,3.05 0.092,4.566"
       fill="#468077"
       id="path33" />
    <path
       d="m 147.609,180.839 c -0.437,-0.197 -0.86,-0.421 -1.269,-0.67 -0.664,-0.432 -1.301,-0.906 -1.905,-1.419 -0.689,-0.575 -1.348,-1.185 -1.974,-1.828 -0.615,-0.613 -1.199,-1.258 -1.747,-1.932 -0.453,-0.541 -0.868,-1.113 -1.242,-1.711 -0.214,-0.282 -0.353,-0.614 -0.405,-0.964 0.008,-0.077 0.032,-0.152 0.07,-0.219 0.039,-0.067 0.09,-0.126 0.152,-0.173 0.318,-0.258 0.658,-0.489 1.016,-0.688 0.453,-0.253 0.941,-0.535 1.447,-0.84 0.543,-0.323 1.054,-0.698 1.525,-1.119 0.498,-0.441 0.918,-0.964 1.242,-1.545 0.351,-0.666 0.527,-1.41 0.51,-2.163 0.006,-0.721 -0.161,-1.433 -0.488,-2.076 -0.327,-0.643 -0.804,-1.198 -1.391,-1.619 -0.709,-0.518 -1.509,-0.899 -2.358,-1.123 -1.085,-0.288 -2.204,-0.424 -3.326,-0.404 l -8.957,0.004 0.802,0.992 0.017,0.017 c 0.097,0.154 0.166,0.323 0.205,0.501 0.122,0.604 0.201,1.217 0.236,1.832 0.046,0.731 0.074,1.55 0.074,2.429 0,0 0.021,9.34 0.013,10.197 -0.013,0.884 -0.039,1.689 -0.087,2.394 -0.031,0.6 -0.109,1.197 -0.236,1.784 -0.036,0.177 -0.105,0.346 -0.205,0.497 l -0.906,1.01 6.394,-0.009 -0.837,-0.979 c -0.107,-0.161 -0.181,-0.342 -0.218,-0.531 -0.132,-0.601 -0.212,-1.213 -0.239,-1.828 -0.044,-0.723 -0.074,-1.519 -0.083,-2.437 -0.013,-0.875 -0.018,-1.653 -0.018,-2.355 V 161.82 h 4.047 c 1.29,0 2.228,0.357 2.864,1.084 0.692,0.869 1.04,1.963 0.976,3.072 0.035,0.81 -0.17,1.612 -0.588,2.307 -0.405,0.617 -0.884,1.183 -1.426,1.684 l -1.539,1.402 c -0.277,0.235 -0.5,0.527 -0.654,0.856 -0.154,0.329 -0.236,0.687 -0.239,1.05 0.028,0.712 0.2,1.411 0.505,2.054 0.345,0.79 0.762,1.546 1.247,2.259 0.543,0.794 1.137,1.551 1.778,2.268 0.656,0.736 1.375,1.413 2.149,2.023 l 0.166,0.118 h 7.548 z"
       fill="#468077"
       id="path34" />
    <path
       d="m 136.909,151.917 c -1.881,0.005 -3.741,-0.401 -5.449,-1.188 l -0.552,-0.27 0.22,-0.469 c 2.32,0.235 1.26,0.237 5.041,0.199 5.13,-0.052 4.598,-4.095 4.598,-4.095 h -4.908 c 0,0 -6.656,0.049 -6.656,-7.878 0,-5.553 4.144,-8.457 8.242,-8.457 4.005,0 6.909,2.769 6.909,6.581 v 7.734 h 0.723 c 1.399,0 2.897,-0.988 2.897,-3.756 v -3.255 c 0,-4.3 3.09,-7.304 7.514,-7.304 3.693,0 7.637,2.098 7.637,7.996 v 2.563 c 0,2.808 0.972,3.756 3.845,3.756 h 15.977 c -0.911,-1.297 -1.526,-3.177 -2.162,-5.14 -1.195,-3.686 -2.441,-7.499 -5.656,-7.499 -2.554,0 -5.453,2.893 -7.066,5.584 l -1.225,2.037 0.162,-6.037 c 3.047,-2.533 6.089,-3.26 8.002,-3.26 6.826,0 8.421,5.167 9.703,9.314 0.958,3.099 1.638,5.001 3.477,5.001 h 1.5 c 1.399,0 2.897,-0.988 2.897,-3.756 v -3.255 c 0,-4.3 3.091,-7.304 7.515,-7.304 3.679,0 7.637,2.656 7.637,8.488 0,6.236 -3.653,8.46 -7.075,8.46 -1.096,0.007 -2.184,-0.204 -3.198,-0.621 -1.015,-0.416 -1.936,-1.029 -2.712,-1.803 -0.51,0.577 -1.139,1.038 -1.844,1.351 -0.705,0.312 -1.469,0.469 -2.241,0.46 h -24.556 c -2.511,0 -4.294,-0.684 -5.314,-2.033 -0.615,0.788 -1.406,1.422 -2.309,1.853 -0.903,0.43 -1.894,0.645 -2.894,0.627 -1.014,0.008 -2.018,-0.187 -2.954,-0.574 -0.937,-0.387 -1.785,-0.959 -2.495,-1.68 -0.511,0.576 -1.139,1.035 -1.843,1.347 -0.704,0.311 -1.467,0.468 -2.237,0.459 h -1.804 c 0,4.116 -2.972,5.823 -7.345,5.823 m 63.183,-20.57 c -2.684,0 -3.87,1.928 -3.962,6.45 l -0.056,2.99 c -0.009,0.878 -0.221,1.743 -0.619,2.526 0.863,0.609 2.607,1.497 4.193,1.497 0.566,0.01 1.127,-0.112 1.638,-0.355 0.512,-0.243 0.959,-0.601 1.309,-1.047 0.928,-1.166 1.403,-2.972 1.403,-5.366 0,-4.392 -1.966,-6.694 -3.906,-6.694 m -44.605,0 c -2.685,0 -3.871,1.929 -3.962,6.45 l -0.061,2.99 c -0.008,0.878 -0.218,1.742 -0.614,2.526 1.205,0.815 2.608,1.289 4.062,1.371 0.579,0.011 1.153,-0.109 1.678,-0.352 0.526,-0.243 0.99,-0.602 1.357,-1.049 0.959,-1.158 1.447,-2.943 1.447,-5.297 0,-4.561 -2.026,-6.637 -3.906,-6.637 m -18.538,0 c -1.996,0 -4.018,2.289 -4.018,6.667 0,4.466 2.017,6.059 3.905,6.059 h 4.006 l -0.048,-7.012 c 0,-3.578 -1.439,-5.714 -3.845,-5.714 z m 39.156,20.246 c -0.401,0.004 -0.793,-0.111 -1.128,-0.331 -0.335,-0.219 -0.597,-0.532 -0.754,-0.9 -0.156,-0.369 -0.199,-0.775 -0.124,-1.167 0.075,-0.393 0.265,-0.755 0.546,-1.04 0.281,-0.285 0.64,-0.48 1.032,-0.561 0.393,-0.08 0.8,-0.043 1.171,0.107 0.371,0.151 0.689,0.408 0.913,0.739 0.225,0.331 0.346,0.721 0.349,1.121 0.003,0.535 -0.206,1.049 -0.582,1.43 -0.376,0.381 -0.888,0.597 -1.423,0.602 z m -68.577,-5.501 c -3.151,0 -5.1,-2.216 -5.209,-5.932 v -8.127 c -6.15,0 -7.2353,4.324 -7.2353,6.757 0,2.128 0.9685,4.618 4.6859,4.618 h 0.6234 v 0.962 h -1.6098 c -5.4722,0 -6.6094,-2.943 -6.6094,-5.493 0,-3.612 2.8736,-8.718 10.7632,-8.744 h 2.672 v 10.185 c 0,2.767 1.499,3.756 2.897,3.756 h 6.434 c -1.613,-1.489 -2.503,-3.661 -2.503,-6.207 0,-5.288 4.054,-8.139 7.868,-8.139 4.591,0 6.787,1.933 6.787,1.933 l -1.09,3.138 -0.575,-0.762 c -1.012,-1.353 -3.047,-2.807 -5.122,-2.807 -2.702,0 -4.254,2.146 -4.254,5.889 0,3.368 1.957,6.955 5.579,6.955 h 3.474 c 2.236,0 2.265,-0.03 2.72,-0.184 0.39,-0.175 0.751,-0.407 1.073,-0.689 l -0.441,2.893 z m -4.211,-17.366 c -0.536,0 -1.051,-0.213 -1.43,-0.592 -0.38,-0.378 -0.593,-0.892 -0.593,-1.428 0,-0.536 0.213,-1.05 0.593,-1.429 0.379,-0.379 0.894,-0.591 1.43,-0.591 0.537,0 1.052,0.212 1.431,0.591 0.38,0.379 0.593,0.893 0.593,1.429 0,0.536 -0.213,1.05 -0.593,1.428 -0.379,0.379 -0.894,0.592 -1.431,0.592 z m -6.0582,0 c -0.4,0.003 -0.7919,-0.113 -1.1261,-0.333 -0.3342,-0.219 -0.5956,-0.533 -0.7514,-0.901 -0.1557,-0.368 -0.1987,-0.773 -0.1235,-1.166 0.0752,-0.392 0.2651,-0.753 0.5459,-1.038 0.2807,-0.285 0.6397,-0.48 1.0314,-0.561 0.3918,-0.08 0.7988,-0.044 1.1696,0.106 0.3708,0.15 0.6888,0.407 0.9137,0.737 0.2249,0.33 0.3467,0.72 0.35,1.119 0.0032,0.536 -0.2066,1.052 -0.5832,1.433 -0.3767,0.382 -0.8896,0.599 -1.4264,0.604 z"
       fill="#468077"
       id="path35" />
    <path
       d="m 79.4468,130.133 c 0.1281,0.199 0.2566,0.398 0.3853,0.597 0.1904,0.252 0.3496,0.526 0.4741,0.817 0.0465,0.145 0.0834,0.294 0.1104,0.445 0.0712,0.375 0.1228,0.753 0.1545,1.134 0.0515,0.562 0.0786,1.126 0.092,1.69 v 10.885 c 0,3.306 -0.7625,4.591 -2.7196,4.591 -0.6364,0 -3.0861,-0.422 -3.0861,-0.422 l -0.5449,1.066 0.6102,0.266 c 1.1328,0.504 2.3559,0.775 3.5961,0.796 3.5914,0 5.7316,-2.355 5.7316,-6.298 v -9.069 c 0,-1.102 -0.0037,-2.2 0.0156,-3.299 -0.0395,-0.618 0.0129,-1.239 0.1554,-1.842 0.1811,-0.465 0.3901,-0.918 0.6259,-1.357 z"
       fill="#468077"
       id="path36" />
    <path
       d="m 73.5536,144.114 v -7.735 c 0,-3.811 -2.9026,-6.58 -6.9084,-6.58 -4.0973,0 -8.2429,2.903 -8.2429,8.457 0,7.926 6.6559,7.877 6.6559,7.877 h 4.9062 c 0,0 0.5339,4.044 -4.5985,4.096 -3.78,0.038 -2.7219,0.036 -5.0409,-0.2 l -0.2203,0.469 0.5518,0.27 c 1.7079,0.788 3.5675,1.194 5.4488,1.189 4.3728,0 7.3443,-1.707 7.3443,-5.824 z m -7.5145,0 c -1.8854,0 -3.9055,-1.593 -3.9055,-6.059 0,-4.378 2.0233,-6.667 4.0186,-6.667 2.4064,0 3.8449,2.136 3.8449,5.714 l 0.0459,7.012 z"
       fill="#468077"
       id="path37" />
    <path
       d="m 39.1808,128.728 c 0.4002,0.004 0.7925,-0.111 1.1273,-0.33 0.3348,-0.219 0.597,-0.533 0.7534,-0.901 0.1564,-0.367 0.2001,-0.773 0.1254,-1.166 -0.0746,-0.393 -0.2642,-0.754 -0.5448,-1.039 -0.2805,-0.285 -0.6395,-0.481 -1.0313,-0.562 -0.3919,-0.082 -0.7992,-0.045 -1.1702,0.105 -0.3711,0.15 -0.6893,0.406 -0.9144,0.736 -0.2252,0.331 -0.3471,0.721 -0.3504,1.12 -0.0032,0.535 0.2059,1.05 0.5816,1.432 0.3757,0.381 0.8874,0.599 1.4234,0.605 z"
       fill="#468077"
       id="path38" />
    <path
       d="m 43.2305,126.691 c -9e-4,0.397 0.1161,0.786 0.3364,1.116 0.2203,0.331 0.5338,0.589 0.9009,0.741 0.3671,0.153 0.7713,0.193 1.1614,0.117 0.3902,-0.077 0.7487,-0.268 1.0302,-0.549 0.2815,-0.28 0.4733,-0.638 0.5512,-1.027 0.0779,-0.389 0.0384,-0.793 -0.1136,-1.16 -0.1519,-0.367 -0.4095,-0.68 -0.7401,-0.901 -0.3305,-0.221 -0.7192,-0.339 -1.1169,-0.339 -0.5307,0.005 -1.0385,0.217 -1.4142,0.592 -0.3757,0.374 -0.5894,0.88 -0.5953,1.41 z"
       fill="#468077"
       id="path39" />
    <path
       d="m 42.1854,124.232 c 0.4002,0.003 0.7923,-0.113 1.1265,-0.333 0.3343,-0.22 0.5958,-0.534 0.7514,-0.902 0.1556,-0.368 0.1984,-0.774 0.1229,-1.166 -0.0755,-0.393 -0.2659,-0.754 -0.5471,-1.039 -0.2812,-0.284 -0.6405,-0.479 -1.0325,-0.559 -0.3921,-0.081 -0.7992,-0.043 -1.1699,0.107 -0.3707,0.151 -0.6884,0.408 -0.9129,0.739 -0.2244,0.331 -0.3455,0.721 -0.348,1.12 -0.002,0.266 0.0484,0.529 0.1483,0.775 0.0999,0.245 0.2475,0.469 0.4341,0.658 0.1867,0.189 0.4089,0.339 0.6537,0.442 0.2449,0.103 0.5078,0.157 0.7735,0.158 z"
       fill="#468077"
       id="path40" />
    <path
       d="m 10.8956,131.109 c 0.4002,0.004 0.7926,-0.111 1.1273,-0.331 0.3348,-0.219 0.597,-0.532 0.7534,-0.9 0.1565,-0.368 0.2001,-0.773 0.1255,-1.166 -0.0747,-0.393 -0.2643,-0.754 -0.5448,-1.04 -0.2806,-0.285 -0.6395,-0.48 -1.0314,-0.561 -0.3919,-0.082 -0.7991,-0.045 -1.1702,0.105 -0.37104,0.15 -0.68926,0.406 -0.91439,0.736 -0.22513,0.331 -0.34706,0.72 -0.35035,1.12 -0.00319,0.535 0.2059,1.05 0.58159,1.432 0.3757,0.381 0.88745,0.599 1.42335,0.605 z"
       fill="#468077"
       id="path41" />
    <path
       d="m 50.3844,131.458 c 0.1154,0.268 0.1946,0.55 0.2355,0.839 0.125,0.835 0.1918,1.677 0.2,2.52 v 5.959 c 0,2.772 -1.495,3.76 -2.8943,3.76 -1.8219,0 -3.8007,-1.658 -3.8793,-4.709 v -1.872 c 0,-1.056 0.0115,-2.116 0.0713,-3.172 0.0067,-0.568 0.0772,-1.134 0.2101,-1.687 0.1695,-0.47 0.3829,-0.923 0.6374,-1.353 h -5.6765 c 0.0893,0 0.4599,0.703 0.5312,0.808 0.3784,0.695 0.5741,1.474 0.5688,2.264 0.0828,1.028 0.1016,2.06 0.1053,3.34 v 2.621 c 0,2.772 -1.495,3.76 -2.8943,3.76 -1.8219,0 -3.8007,-1.658 -3.8793,-5.418 -0.063,-1.682 0.0066,-3.367 0.2083,-5.038 0.1456,-0.407 0.3345,-0.797 0.5633,-1.164 h -5.5532 l 0.5661,0.877 c 0.3639,0.705 0.5506,1.488 0.544,2.281 0.0658,0.742 0.0957,1.489 0.1099,2.235 0.0065,0.336 0.0095,0.674 0.0092,1.014 v 1.285 c 0,3.064 -2.4933,4.457 -4.8077,4.457 -2.2073,0 -4.5379,-1.205 -4.7687,-3.843 v -1.806 c 0,-1.393 0.0133,-2.788 0.1154,-4.179 -0.0078,-0.513 0.0906,-1.022 0.2893,-1.495 l 0.4194,-0.826 h -5.6199 c 0.2042,0.316 0.4166,0.629 0.6157,0.948 0.6351,1.018 0.568,2.576 0.6015,3.735 v 5.34 c 0,4.888 -2.2969,7.268 -7.02192,7.268 -4.80362,0 -8.29068,-3.081 -8.29068,-7.325 0,-6.458 6.41172,-6.458 6.41172,-6.458 l -2.74576,-3.06 c -3.31094,1.589 -5.37016625,5.127 -5.37016625,9.229 0,5.536 4.18006625,9.401 10.16920625,9.401 5.8102,0 9.4412,-2.551 10.2386,-7.373 1.4039,1.558 3.7965,2.272 5.985,2.272 2.6501,0 5.5706,-1.071 6.769,-3.382 0.569,0.927 1.366,1.693 2.3151,2.226 0.9491,0.532 2.0188,0.813 3.1075,0.816 1.0239,0.031 2.035,-0.234 2.9118,-0.762 0.8768,-0.529 1.5821,-1.3 2.0311,-2.219 0.5734,0.909 1.3674,1.659 2.3084,2.18 0.9411,0.522 1.9986,0.797 3.0747,0.801 2.6326,0 5.4658,-1.749 5.4658,-5.601 l 0.0308,-0.643 v -3.678 c 0,-1.056 0.0129,-2.112 0.0602,-3.168 -0.0137,-0.68 0.0458,-1.36 0.1775,-2.027 0.1599,-0.447 0.3562,-0.879 0.5868,-1.293 h -5.6019 c 0.1477,0.19 0.2744,0.396 0.378,0.613 0.1393,0.227 0.2664,0.461 0.3807,0.701"
       fill="#468077"
       id="path42" />
  </g>
  <defs
     id="defs42">
    <clipPath
       id="clip0_2882_10827">
      <rect
         width="208.00301"
         height="182.002"
         fill="#ffffff"
         transform="translate(-0.00390625)"
         id="rect42"
         x="0"
         y="0" />
    </clipPath>
  </defs>
</svg>
